<?xml version="1.0" standalone="no"?>
<!DOCTYPE svg PUBLIC "-//W3C//DTD SVG 20010904//EN"
 "http://www.w3.org/TR/2001/REC-SVG-20010904/DTD/svg10.dtd">
<svg version="1.0" xmlns="http://www.w3.org/2000/svg"
 width="512.000000pt" height="512.000000pt" viewBox="0 0 512.000000 512.000000"
 preserveAspectRatio="xMidYMid meet">

<g transform="translate(0.000000,512.000000) scale(0.100000,-0.100000)"
fill="#000000" stroke="none">
<path d="M2182 5100 c-81 -29 -183 -89 -258 -150 -183 -152 -365 -448 -478
-777 l-45 -133 419 0 420 0 0 540 c0 297 -1 540 -2 540 -2 -1 -27 -9 -56 -20z"/>
<path d="M2546 5112 c-3 -3 -6 -245 -6 -539 l0 -533 425 0 424 0 -45 133
c-113 330 -289 615 -480 778 -95 81 -297 183 -318 161z"/>
<path d="M1403 4906 c-353 -173 -647 -430 -874 -763 l-70 -103 314 0 315 0 42
133 c85 266 187 487 313 676 41 61 74 111 72 111 -1 0 -51 -24 -112 -54z"/>
<path d="M3347 4849 c126 -189 228 -410 313 -676 l42 -133 315 0 314 0 -70
103 c-222 327 -504 575 -851 752 -71 36 -131 65 -133 65 -3 0 29 -50 70 -111z"/>
<path d="M291 3687 c-44 -120 -73 -218 -96 -332 -21 -105 -45 -265 -45 -302 0
-10 82 -13 398 -13 l399 0 7 128 c7 144 29 346 51 472 8 47 15 88 15 93 0 4
-159 7 -354 7 l-355 0 -20 -53z"/>
<path d="M1325 3728 c-19 -56 -61 -389 -71 -560 l-7 -128 497 0 496 0 0 350 0
350 -455 0 c-356 0 -457 -3 -460 -12z"/>
<path d="M2547 3733 c-4 -3 -7 -161 -7 -350 l0 -343 500 0 500 0 0 52 c0 87
-30 374 -53 513 l-22 130 -456 3 c-250 1 -459 -1 -462 -5z"/>
<path d="M3770 3735 c0 -2 9 -60 20 -127 22 -140 50 -423 50 -510 l0 -58 401
0 401 0 -7 68 c-19 181 -70 400 -137 580 l-19 52 -355 0 c-195 0 -354 -2 -354
-5z"/>
<path d="M155 2673 c19 -183 77 -435 133 -578 l20 -50 357 -3 357 -2 -5 22
c-22 88 -67 505 -67 621 l0 57 -401 0 -401 0 7 -67z"/>
<path d="M1254 2613 c7 -129 37 -382 59 -503 l12 -65 458 -3 457 -2 0 350 0
350 -496 0 -497 0 7 -127z"/>
<path d="M2547 2733 c-4 -3 -7 -161 -7 -350 l0 -343 462 2 463 3 12 65 c22
121 52 374 59 503 l7 127 -495 0 c-272 0 -498 -3 -501 -7z"/>
<path d="M3836 2613 c-7 -139 -30 -354 -50 -471 l-13 -74 41 6 c222 33 365 32
521 -5 149 -36 143 -37 178 56 43 120 93 328 111 465 9 67 16 128 16 136 0 12
-62 14 -398 14 l-399 0 -7 -127z"/>
<path d="M3906 1785 c-288 -60 -515 -233 -641 -488 -71 -144 -89 -224 -88
-397 0 -173 18 -255 88 -396 116 -237 322 -405 580 -475 115 -32 335 -32 450
0 318 86 560 328 646 646 18 65 22 107 22 225 0 118 -4 160 -22 225 -86 318
-331 563 -646 646 -104 27 -292 34 -389 14z m234 -455 c70 -36 80 -70 80 -280
0 -210 -10 -244 -80 -280 -35 -18 -59 -20 -221 -20 -169 0 -184 1 -221 22 -45
25 -78 80 -78 128 0 48 33 103 78 128 33 18 55 22 131 22 l91 0 0 93 c1 109
17 147 76 183 48 29 92 30 144 4z"/>
<path d="M466 1728 c169 -286 471 -588 765 -766 87 -52 270 -144 276 -139 2 2
-26 47 -61 99 -83 125 -144 237 -206 381 -48 112 -115 301 -139 395 l-12 42
-315 0 c-249 0 -314 -3 -308 -12z"/>
<path d="M1417 1688 c109 -370 329 -730 546 -894 62 -47 198 -117 250 -130
l27 -6 0 541 0 541 -419 0 -420 0 16 -52z"/>
<path d="M2547 1733 c-4 -3 -7 -247 -7 -541 l0 -534 33 6 c47 9 184 78 243
122 l51 38 6 120 c13 283 109 528 289 739 l49 57 -329 0 c-181 0 -332 -3 -335
-7z"/>
</g>
</svg>
